<?xml version="1.0" standalone="no"?>
<!DOCTYPE svg PUBLIC "-//W3C//DTD SVG 20010904//EN"
 "http://www.w3.org/TR/2001/REC-SVG-20010904/DTD/svg10.dtd">
<svg version="1.0" xmlns="http://www.w3.org/2000/svg"
 width="700.000000pt" height="700.000000pt" viewBox="0 0 700.000000 700.000000"
 preserveAspectRatio="xMidYMid meet">
<metadata>
Created by potrace 1.14, written by Peter Selinger 2001-2017
</metadata>
<g transform="translate(0.000000,700.000000) scale(0.100000,-0.100000)"
fill="#000000" stroke="none">
<path d="M5500 6976 c-387 -81 -696 -365 -804 -740 -14 -46 -28 -111 -32 -145
l-7 -61 -2179 0 -2179 0 -24 -25 c-17 -16 -25 -35 -25 -59 0 -32 39 -80 448
-543 246 -279 528 -600 627 -713 171 -196 1279 -1454 1432 -1628 l73 -82 0
-1295 0 -1295 -224 0 c-223 0 -225 0 -253 -24 -27 -24 -28 -27 -31 -146 -4
-136 0 -162 28 -190 20 -20 36 -20 665 -20 625 0 646 1 664 19 27 27 34 73 29
202 -3 107 -4 112 -31 135 -28 24 -30 24 -253 24 l-224 0 0 1298 1 1297 560
635 c309 349 729 827 935 1062 l374 427 86 -54 c172 -108 326 -150 549 -150
124 1 165 5 239 24 194 50 360 145 495 281 126 126 211 270 267 456 26 83 28
102 28 274 1 164 -2 195 -22 270 -28 101 -93 243 -152 331 -56 82 -187 213
-269 269 -87 58 -230 124 -326 150 -102 28 -364 37 -465 16z m435 -181 c406
-119 668 -487 642 -904 -14 -226 -109 -425 -280 -588 -219 -207 -526 -285
-828 -208 -66 17 -228 91 -266 122 l-21 18 294 334 c162 184 297 345 300 358
10 37 -4 72 -36 88 -25 13 -96 15 -474 15 l-445 0 6 38 c49 351 312 646 653
732 107 27 122 29 250 25 87 -3 137 -10 205 -30z m-447 -962 c-13 -16 -224
-255 -468 -533 -243 -278 -451 -513 -462 -522 -19 -17 -107 -18 -1548 -18
l-1527 0 -464 527 c-255 290 -472 537 -482 550 l-18 23 2497 0 2498 0 -26 -27z
m-1125 -1278 c-289 -336 -1341 -1523 -1349 -1522 -9 2 -1299 1458 -1373 1550
-13 16 69 17 1374 17 l1387 0 -39 -45z m-1333 -3034 c0 -875 3 -1217 11 -1241
19 -54 49 -60 289 -60 l210 0 0 -25 0 -25 -525 0 -525 0 0 25 0 25 209 0 c212
0 253 6 277 38 11 14 13 253 14 1245 0 1220 0 1227 20 1227 20 0 20 -7 20
-1209z"/>
</g>
</svg>
